# xmcd
#
# Track frame offsets:
#	183
#	18933
#	35813
#	52405
#	73950
#	98218
#	122813
#	140240
#	159903
#	187558
#	203080
#	215478
#	239428
#	259770
#	275548
#	284848
#
# Disc length: 4164 seconds
#
# Revision: 0
# Processed by: cddbd v1.4PL0 Copyright (c) Steve Scherf et al.
# Submitted via: dBpowerAMP V4.0
#
DISCID=01104210
DTITLE=Rev Brown and the Early Birds - Well Bless My Soul
DYEAR=1991
DGENRE=Blues
TTITLE0=I Can Only Sing The Blues
TTITLE1=New Day Blues
TTITLE2=Slowtrain Blues
TTITLE3=Up The Dirt Track
TTITLE4=Dont Worry Baby
TTITLE5=Dreamland
TTITLE6=Ocean Blues
TTITLE7=Theres A Rumour Going Round
TTITLE8=Religion Blues
TTITLE9=Alone Again Blues
TTITLE10=All I Want
TTITLE11=I Still Need Love
TTITLE12=If I'm Thinking Of You
TTITLE13=Walking Out With My Baby
TTITLE14=Tomorrow Is Another Day Blues
TTITLE15=Holy Grail Blues
EXTD=Manchester based three piece blues band
EXTT0=
EXTT1=
EXTT2=
EXTT3=
EXTT4=
EXTT5=
EXTT6=
EXTT7=
EXTT8=
EXTT9=
EXTT10=
EXTT11=
EXTT12=
EXTT13=
EXTT14=
EXTT15=
PLAYORDER=
